exbold.ufo
<glyph name="dollar" format="1">
  <advance width="1080"/>
  <unicode hex="0024"/>
  <outline>
    <contour>
      <point x="454" y="61" type="line"/>
      <point x="322" y="67"/>
      <point x="195" y="96"/>
      <point x="74" y="149" type="curve"/>
      <point x="74" y="448" type="line"/>
      <point x="143" y="413"/>
      <point x="219" y="383"/>
      <point x="300" y="359" type="curve"/>
      <point x="382" y="336"/>
      <point x="454" y="324"/>
      <point x="516" y="324" type="curve" smooth="yes"/>
      <point x="617" y="324"/>
      <point x="663" y="347"/>
      <point x="663" y="404" type="curve" smooth="yes"/>
      <point x="662" y="463"/>
      <point x="595" y="486"/>
      <point x="391" y="564" type="curve" smooth="yes"/>
      <point x="314" y="593"/>
      <point x="253" y="624"/>
      <point x="206" y="659" type="curve" smooth="yes"/>
      <point x="113" y="730"/>
      <point x="72" y="809"/>
      <point x="72" y="940" type="curve" smooth="yes"/>
      <point x="72" y="1137"/>
      <point x="199" y="1248"/>
      <point x="454" y="1275" type="curve"/>
      <point x="454" y="1399" type="line"/>
      <point x="640" y="1399" type="line"/>
      <point x="640" y="1277" type="line"/>
      <point x="759" y="1270"/>
      <point x="880" y="1241"/>
      <point x="1001" y="1189" type="curve"/>
      <point x="894" y="932" type="line"/>
      <point x="769" y="989"/>
      <point x="655" y="1017"/>
      <point x="554" y="1017" type="curve" smooth="yes"/>
      <point x="458" y="1017"/>
      <point x="424" y="993"/>
      <point x="424" y="948" type="curve" smooth="yes"/>
      <point x="425" y="889"/>
      <point x="477" y="868"/>
      <point x="663" y="800" type="curve" smooth="yes"/>
      <point x="788" y="755"/>
      <point x="878" y="705"/>
      <point x="933" y="648" type="curve" smooth="yes"/>
      <point x="988" y="591"/>
      <point x="1015" y="518"/>
      <point x="1015" y="429" type="curve" smooth="yes"/>
      <point x="1015" y="228"/>
      <point x="884" y="96"/>
      <point x="640" y="67" type="curve"/>
      <point x="640" y="-107" type="line"/>
      <point x="454" y="-107" type="line"/>
    </contour>
  </outline>
</glyph>
<glyph name="percent.deva" format="1">
  <advance width="1748"/>
  <unicode hex="0025"/>
  <outline>
    <contour>
      <point x="304" y="920" type="curve" smooth="yes"/>
      <point x="304" y="781"/>
      <point x="326" y="724"/>
      <point x="373" y="724" type="curve" smooth="yes"/>
      <point x="418" y="724"/>
      <point x="440" y="779"/>
      <point x="440" y="920" type="curve" smooth="yes"/>
      <point x="440" y="1057"/>
      <point x="418" y="1115"/>
      <point x="373" y="1115" type="curve" smooth="yes"/>
      <point x="325" y="1115"/>
      <point x="304" y="1055"/>
    </contour>
    <contour>
      <point x="712" y="923" type="curve" smooth="yes"/>
      <point x="712" y="659"/>
      <point x="589" y="508"/>
      <point x="369" y="508" type="curve" smooth="yes"/>
      <point x="266" y="508"/>
      <point x="184" y="545"/>
      <point x="123" y="620" type="curve" smooth="yes"/>
      <point x="63" y="695"/>
      <point x="33" y="796"/>
      <point x="33" y="923" type="curve" smooth="yes"/>
      <point x="33" y="1187"/>
      <point x="157" y="1335"/>
      <point x="369" y="1335" type="curve" smooth="yes"/>
      <point x="474" y="1335"/>
      <point x="557" y="1298"/>
      <point x="619" y="1224" type="curve" smooth="yes"/>
      <point x="681" y="1150"/>
      <point x="712" y="1050"/>
    </contour>
    <contour>
      <point x="1368" y="1316" type="line"/>
      <point x="638" y="0" type="line"/>
      <point x="371" y="0" type="line"/>
      <point x="1101" y="1316" type="line"/>
    </contour>
    <contour>
      <point x="1305" y="396" type="curve" smooth="yes"/>
      <point x="1305" y="257"/>
      <point x="1328" y="201"/>
      <point x="1373" y="201" type="curve" smooth="yes"/>
      <point x="1425" y="201"/>
      <point x="1442" y="276"/>
      <point x="1442" y="396" type="curve" smooth="yes"/>
      <point x="1442" y="516"/>
      <point x="1425" y="591"/>
      <point x="1373" y="591" type="curve" smooth="yes"/>
      <point x="1326" y="591"/>
      <point x="1305" y="532"/>
    </contour>
    <contour>
      <point x="1713" y="400" type="curve" smooth="yes"/>
      <point x="1713" y="136"/>
      <point x="1589" y="-14"/>
      <point x="1370" y="-14" type="curve" smooth="yes"/>
      <point x="1267" y="-14"/>
      <point x="1185" y="23"/>
      <point x="1124" y="98" type="curve" smooth="yes"/>
      <point x="1064" y="173"/>
      <point x="1034" y="273"/>
      <point x="1034" y="400" type="curve" smooth="yes"/>
      <point x="1034" y="664"/>
      <point x="1157" y="811"/>
      <point x="1370" y="811" type="curve" smooth="yes"/>
      <point x="1475" y="811"/>
      <point x="1558" y="774"/>
      <point x="1620" y="700" type="curve" smooth="yes"/>
      <point x="1682" y="626"/>
      <point x="1713" y="526"/>
    </contour>
  </outline>
</glyph>
<glyph name="slash.deva" format="1">
  <advance width="814"/>
  <unicode hex="002F"/>
  <outline>
    <contour>
      <point x="811" y="1335" type="line"/>
      <point x="320" y="-18" type="line"/>
      <point x="9" y="-18" type="line"/>
      <point x="499" y="1335" type="line"/>
    </contour>
  </outline>
</glyph>
<glyph name="nine.deva" format="1">
  <advance width="1080"/>
  <unicode hex="0039"/>
  <outline>
    <contour>
      <point x="1020" y="714" type="curve" smooth="yes"/>
      <point x="1020" y="457"/>
      <point x="964" y="270"/>
      <point x="853" y="155" type="curve" smooth="yes"/>
      <point x="742" y="40"/>
      <point x="565" y="-18"/>
      <point x="320" y="-18" type="curve" smooth="yes"/>
      <point x="240" y="-18"/>
      <point x="179" y="-15"/>
      <point x="137" y="-9" type="curve"/>
      <point x="137" y="273" type="line"/>
      <point x="188" y="263"/>
      <point x="240" y="258"/>
      <point x="292" y="258" type="curve" smooth="yes"/>
      <point x="545" y="258"/>
      <point x="686" y="359"/>
      <point x="698" y="586" type="curve"/>
      <point x="688" y="586" type="line"/>
      <point x="664" y="543"/>
      <point x="641" y="511"/>
      <point x="618" y="492" type="curve" smooth="yes"/>
      <point x="573" y="453"/>
      <point x="510" y="433"/>
      <point x="411" y="433" type="curve" smooth="yes"/>
      <point x="297" y="433"/>
      <point x="208" y="471"/>
      <point x="144" y="547" type="curve" smooth="yes"/>
      <point x="80" y="623"/>
      <point x="48" y="728"/>
      <point x="48" y="862" type="curve" smooth="yes"/>
      <point x="48" y="1008"/>
      <point x="89" y="1122"/>
      <point x="172" y="1205" type="curve" smooth="yes"/>
      <point x="255" y="1288"/>
      <point x="369" y="1329"/>
      <point x="514" y="1329" type="curve" smooth="yes"/>
      <point x="675" y="1329"/>
      <point x="799" y="1276"/>
      <point x="887" y="1169" type="curve" smooth="yes"/>
      <point x="976" y="1062"/>
      <point x="1020" y="911"/>
    </contour>
    <contour>
      <point x="524" y="1045" type="curve" smooth="yes"/>
      <point x="445" y="1045"/>
      <point x="392" y="991"/>
      <point x="392" y="867" type="curve" smooth="yes"/>
      <point x="392" y="768"/>
      <point x="433" y="706"/>
      <point x="520" y="706" type="curve" smooth="yes"/>
      <point x="559" y="706"/>
      <point x="593" y="720"/>
      <point x="622" y="748" type="curve" smooth="yes"/>
      <point x="651" y="776"/>
      <point x="665" y="810"/>
      <point x="665" y="850" type="curve" smooth="yes"/>
      <point x="665" y="903"/>
      <point x="652" y="949"/>
      <point x="625" y="987" type="curve" smooth="yes"/>
      <point x="598" y="1026"/>
      <point x="565" y="1045"/>
    </contour>
  </outline>
</glyph>
<glyph name="semicolon.deva" format="1">
  <advance width="547"/>
  <unicode hex="003B"/>
  <outline>
    <contour>
      <point x="448" y="269" type="line"/>
      <point x="461" y="248" type="line"/>
      <point x="402" y="19"/>
      <point x="349" y="-149"/>
      <point x="302" y="-257" type="curve"/>
      <point x="51" y="-257" type="line"/>
      <point x="68" y="-174"/>
      <point x="86" y="-81"/>
      <point x="103" y="22" type="curve" smooth="yes"/>
      <point x="121" y="125"/>
      <point x="133" y="207"/>
      <point x="140" y="269" type="curve"/>
    </contour>
    <contour>
      <point x="83" y="860" type="curve" smooth="yes"/>
      <point x="83" y="969"/>
      <point x="148" y="1032"/>
      <point x="273" y="1032" type="curve" smooth="yes"/>
      <point x="393" y="1032"/>
      <point x="459" y="968"/>
      <point x="459" y="860" type="curve" smooth="yes"/>
      <point x="459" y="752"/>
      <point x="392" y="688"/>
      <point x="273" y="688" type="curve" smooth="yes"/>
      <point x="150" y="688"/>
      <point x="83" y="751"/>
    </contour>
  </outline>
</glyph>
<glyph name="question.deva" format="1">
  <advance width="931"/>
  <unicode hex="003F"/>
  <outline>
    <contour>
      <point x="265" y="464" type="line"/>
      <point x="265" y="542" type="line" smooth="yes"/>
      <point x="265" y="601"/>
      <point x="277" y="650"/>
      <point x="301" y="690" type="curve" smooth="yes"/>
      <point x="325" y="731"/>
      <point x="368" y="770"/>
      <point x="429" y="809" type="curve" smooth="yes"/>
      <point x="526" y="870"/>
      <point x="566" y="913"/>
      <point x="566" y="976" type="curve" smooth="yes"/>
      <point x="566" y="1027"/>
      <point x="516" y="1058"/>
      <point x="443" y="1058" type="curve" smooth="yes"/>
      <point x="352" y="1058"/>
      <point x="246" y="1026"/>
      <point x="125" y="962" type="curve"/>
      <point x="0" y="1207" type="line"/>
      <point x="149" y="1292"/>
      <point x="305" y="1335"/>
      <point x="468" y="1335" type="curve" smooth="yes"/>
      <point x="602" y="1335"/>
      <point x="707" y="1305"/>
      <point x="783" y="1246" type="curve" smooth="yes"/>
      <point x="859" y="1187"/>
      <point x="897" y="1107"/>
      <point x="897" y="1006" type="curve" smooth="yes"/>
      <point x="897" y="861"/>
      <point x="833" y="762"/>
      <point x="684" y="667" type="curve" smooth="yes"/>
      <point x="621" y="626"/>
      <point x="581" y="596"/>
      <point x="565" y="577" type="curve" smooth="yes"/>
      <point x="550" y="558"/>
      <point x="542" y="536"/>
      <point x="542" y="510" type="curve" smooth="yes"/>
      <point x="542" y="464" type="line"/>
    </contour>
    <contour>
      <point x="227" y="149" type="curve" smooth="yes"/>
      <point x="227" y="260"/>
      <point x="292" y="322"/>
      <point x="417" y="322" type="curve" smooth="yes"/>
      <point x="537" y="322"/>
      <point x="603" y="258"/>
      <point x="603" y="149" type="curve" smooth="yes"/>
      <point x="603" y="40"/>
      <point x="532" y="-23"/>
      <point x="417" y="-23" type="curve" smooth="yes"/>
      <point x="298" y="-23"/>
      <point x="227" y="40"/>
    </contour>
  </outline>
</glyph>
<glyph name="B" format="1">
  <advance width="1242"/>
  <unicode hex="0042"/>
  <outline>
    <contour>
      <point x="142" y="1316" type="line"/>
      <point x="601" y="1316" type="line" smooth="yes"/>
      <point x="958" y="1316"/>
      <point x="1129" y="1212"/>
      <point x="1129" y="988" type="curve" smooth="yes"/>
      <point x="1129" y="914"/>
      <point x="1110" y="851"/>
      <point x="1072" y="799" type="curve" smooth="yes"/>
      <point x="1035" y="747"/>
      <point x="985" y="713"/>
      <point x="923" y="698" type="curve"/>
      <point x="923" y="689" type="line"/>
      <point x="1087" y="646"/>
      <point x="1156" y="546"/>
      <point x="1156" y="385" type="curve" smooth="yes"/>
      <point x="1156" y="266"/>
      <point x="1111" y="172"/>
      <point x="1021" y="103" type="curve" smooth="yes"/>
      <point x="931" y="34"/>
      <point x="809" y="0"/>
      <point x="654" y="0" type="curve" smooth="yes"/>
      <point x="142" y="0" type="line"/>
    </contour>
    <contour>
      <point x="498" y="811" type="line"/>
      <point x="605" y="811" type="line" smooth="yes"/>
      <point x="706" y="811"/>
      <point x="765" y="853"/>
      <point x="765" y="936" type="curve" smooth="yes"/>
      <point x="765" y="1010"/>
      <point x="709" y="1047"/>
      <point x="598" y="1047" type="curve" smooth="yes"/>
      <point x="498" y="1047" type="line"/>
    </contour>
    <contour>
      <point x="498" y="551" type="line"/>
      <point x="498" y="274" type="line"/>
      <point x="623" y="274" type="line" smooth="yes"/>
      <point x="734" y="274"/>
      <point x="789" y="321"/>
      <point x="789" y="415" type="curve" smooth="yes"/>
      <point x="789" y="503"/>
      <point x="728" y="551"/>
      <point x="616" y="551" type="curve" smooth="yes"/>
    </contour>
  </outline>
</glyph>
<glyph name="G" format="1">
  <advance width="1364"/>
  <unicode hex="0047"/>
  <outline>
    <contour>
      <point x="670" y="770" type="line"/>
      <point x="1238" y="770" type="line"/>
      <point x="1238" y="61" type="line"/>
      <point x="1084" y="8"/>
      <point x="915" y="-18"/>
      <point x="730" y="-18" type="curve" smooth="yes"/>
      <point x="527" y="-18"/>
      <point x="371" y="41"/>
      <point x="260" y="158" type="curve" smooth="yes"/>
      <point x="149" y="276"/>
      <point x="94" y="444"/>
      <point x="94" y="661" type="curve" smooth="yes"/>
      <point x="94" y="874"/>
      <point x="154" y="1039"/>
      <point x="275" y="1157" type="curve" smooth="yes"/>
      <point x="396" y="1276"/>
      <point x="566" y="1335"/>
      <point x="785" y="1335" type="curve" smooth="yes"/>
      <point x="950" y="1335"/>
      <point x="1102" y="1300"/>
      <point x="1211" y="1252" type="curve"/>
      <point x="1099" y="973" type="line"/>
      <point x="1004" y="1020"/>
      <point x="900" y="1043"/>
      <point x="787" y="1043" type="curve" smooth="yes"/>
      <point x="579" y="1043"/>
      <point x="461" y="904"/>
      <point x="461" y="652" type="curve" smooth="yes"/>
      <point x="461" y="407"/>
      <point x="567" y="274"/>
      <point x="760" y="274" type="curve" smooth="yes"/>
      <point x="813" y="274"/>
      <point x="861" y="279"/>
      <point x="905" y="290" type="curve"/>
      <point x="905" y="496" type="line"/>
      <point x="670" y="496" type="line"/>
    </contour>
  </outline>
</glyph>
<glyph name="J" format="1">
  <advance width="649"/>
  <unicode hex="004A"/>
  <outline>
    <contour>
      <point x="39" y="-413" type="curve" smooth="yes"/>
      <point x="-26" y="-413"/>
      <point x="-88" y="-407"/>
      <point x="-146" y="-394" type="curve"/>
      <point x="-146" y="-118" type="line"/>
      <point x="-107" y="-125"/>
      <point x="-65" y="-137"/>
      <point x="-14" y="-137" type="curve" smooth="yes"/>
      <point x="45" y="-137"/>
      <point x="86" y="-119"/>
      <point x="111" y="-84" type="curve" smooth="yes"/>
      <point x="136" y="-49"/>
      <point x="149" y="12"/>
      <point x="149" y="98" type="curve" smooth="yes"/>
      <point x="149" y="1316" type="line"/>
      <point x="507" y="1316" type="line"/>
      <point x="507" y="129" type="line" smooth="yes"/>
      <point x="507" y="-228"/>
      <point x="351" y="-413"/>
    </contour>
  </outline>
</glyph>
<glyph name="P" format="1">
  <advance width="1165"/>
  <unicode hex="0050"/>
  <outline>
    <contour>
      <point x="1097" y="897" type="curve" smooth="yes"/>
      <point x="1097" y="750"/>
      <point x="1054" y="637"/>
      <point x="967" y="556" type="curve" smooth="yes"/>
      <point x="880" y="476"/>
      <point x="757" y="436"/>
      <point x="598" y="436" type="curve" smooth="yes"/>
      <point x="498" y="436" type="line"/>
      <point x="498" y="0" type="line"/>
      <point x="142" y="0" type="line"/>
      <point x="142" y="1316" type="line"/>
      <point x="598" y="1316" type="line" smooth="yes"/>
      <point x="930" y="1316"/>
      <point x="1097" y="1165"/>
    </contour>
    <contour>
      <point x="498" y="726" type="line"/>
      <point x="562" y="726" type="line" smooth="yes"/>
      <point x="670" y="726"/>
      <point x="737" y="790"/>
      <point x="737" y="895" type="curve" smooth="yes"/>
      <point x="737" y="984"/>
      <point x="688" y="1029"/>
      <point x="589" y="1029" type="curve" smooth="yes"/>
      <point x="498" y="1029" type="line"/>
    </contour>
  </outline>
</glyph>
<glyph name="T" format="1">
  <advance width="1089"/>
  <unicode hex="0054"/>
  <outline>
    <contour>
      <point x="723" y="0" type="line"/>
      <point x="367" y="0" type="line"/>
      <point x="367" y="1025" type="line"/>
      <point x="46" y="1025" type="line"/>
      <point x="46" y="1316" type="line"/>
      <point x="1043" y="1316" type="line"/>
      <point x="1043" y="1025" type="line"/>
      <point x="723" y="1025" type="line"/>
    </contour>
  </outline>
</glyph>
<glyph name="X" format="1">
  <advance width="1333"/>
  <unicode hex="0058"/>
  <outline>
    <contour>
      <point x="1327" y="0" type="line"/>
      <point x="916" y="0" type="line"/>
      <point x="660" y="411" type="line"/>
      <point x="406" y="0" type="line"/>
      <point x="4" y="0" type="line"/>
      <point x="440" y="673" type="line"/>
      <point x="30" y="1316" type="line"/>
      <point x="424" y="1316" type="line"/>
      <point x="661" y="909" type="line"/>
      <point x="890" y="1316" type="line"/>
      <point x="1296" y="1316" type="line"/>
      <point x="879" y="645" type="line"/>
    </contour>
  </outline>
</glyph>
<glyph name="Y" format="1">
  <advance width="1224"/>
  <unicode hex="0059"/>
  <outline>
    <contour>
      <point x="612" y="828" type="line"/>
      <point x="839" y="1316" type="line"/>
      <point x="1224" y="1316" type="line"/>
      <point x="791" y="514" type="line"/>
      <point x="791" y="0" type="line"/>
      <point x="433" y="0" type="line"/>
      <point x="433" y="503" type="line"/>
      <point x="0" y="1316" type="line"/>
      <point x="387" y="1316" type="line"/>
    </contour>
  </outline>
</glyph>
<glyph name="backslash.deva" format="1">
  <advance width="814"/>
  <unicode hex="005C"/>
  <outline>
    <contour>
      <point x="317" y="1335" type="line"/>
      <point x="807" y="-18" type="line"/>
      <point x="496" y="-18" type="line"/>
      <point x="5" y="1335" type="line"/>
    </contour>
  </outline>
</glyph>
<glyph name="h" format="1">
  <advance width="1235"/>
  <unicode hex="0068"/>
  <outline>
    <contour>
      <point x="763" y="0" type="line"/>
      <point x="763" y="556" type="line" smooth="yes"/>
      <point x="763" y="693"/>
      <point x="723" y="761"/>
      <point x="642" y="761" type="curve" smooth="yes"/>
      <point x="526" y="761"/>
      <point x="473" y="672"/>
      <point x="473" y="448" type="curve" smooth="yes"/>
      <point x="473" y="0" type="line"/>
      <point x="121" y="0" type="line"/>
      <point x="121" y="1400" type="line"/>
      <point x="473" y="1400" type="line"/>
      <point x="473" y="1201" type="line" smooth="yes"/>
      <point x="473" y="1111"/>
      <point x="468" y="1009"/>
      <point x="459" y="894" type="curve"/>
      <point x="475" y="894" type="line"/>
      <point x="543" y="999"/>
      <point x="633" y="1038"/>
      <point x="756" y="1038" type="curve" smooth="yes"/>
      <point x="870" y="1038"/>
      <point x="959" y="1005"/>
      <point x="1022" y="939" type="curve" smooth="yes"/>
      <point x="1085" y="874"/>
      <point x="1117" y="782"/>
      <point x="1117" y="663" type="curve" smooth="yes"/>
      <point x="1117" y="0" type="line"/>
    </contour>
  </outline>
</glyph>
<glyph name="j" format="1">
  <advance width="598"/>
  <unicode hex="006A"/>
  <outline>
    <contour>
      <point x="95" y="-443" type="curve" smooth="yes"/>
      <point x="66" y="-443"/>
      <point x="33" y="-441"/>
      <point x="-4" y="-436" type="curve" smooth="yes"/>
      <point x="-41" y="-431"/>
      <point x="-71" y="-426"/>
      <point x="-94" y="-420" type="curve"/>
      <point x="-94" y="-146" type="line"/>
      <point x="-55" y="-157"/>
      <point x="-19" y="-162"/>
      <point x="14" y="-162" type="curve" smooth="yes"/>
      <point x="85" y="-162"/>
      <point x="121" y="-111"/>
      <point x="121" y="-9" type="curve" smooth="yes"/>
      <point x="121" y="1020" type="line"/>
      <point x="473" y="1020" type="line"/>
      <point x="473" y="-83" type="line" smooth="yes"/>
      <point x="473" y="-195"/>
      <point x="440" y="-283"/>
      <point x="374" y="-347" type="curve" smooth="yes"/>
      <point x="309" y="-411"/>
      <point x="216" y="-443"/>
    </contour>
    <contour>
      <point x="112" y="1273" type="curve" smooth="yes"/>
      <point x="112" y="1380"/>
      <point x="168" y="1430"/>
      <point x="299" y="1430" type="curve" smooth="yes"/>
      <point x="430" y="1430"/>
      <point x="487" y="1377"/>
      <point x="487" y="1273" type="curve" smooth="yes"/>
      <point x="487" y="1170"/>
      <point x="424" y="1119"/>
      <point x="299" y="1119" type="curve" smooth="yes"/>
      <point x="174" y="1119"/>
      <point x="112" y="1170"/>
    </contour>
  </outline>
</glyph>
<glyph name="o" format="1">
  <advance width="1174"/>
  <unicode hex="006F"/>
  <outline>
    <contour>
      <point x="1095" y="512" type="curve"/>
      <point x="1095" y="345"/>
      <point x="1050" y="215"/>
      <point x="960" y="122" type="curve" smooth="yes"/>
      <point x="871" y="29"/>
      <point x="745" y="-18"/>
      <point x="584" y="-18" type="curve" smooth="yes"/>
      <point x="429" y="-18"/>
      <point x="306" y="30"/>
      <point x="214" y="125" type="curve" smooth="yes"/>
      <point x="123" y="220"/>
      <point x="77" y="349"/>
      <point x="77" y="512" type="curve" smooth="yes"/>
      <point x="77" y="678"/>
      <point x="122" y="807"/>
      <point x="211" y="899" type="curve" smooth="yes"/>
      <point x="301" y="992"/>
      <point x="427" y="1038"/>
      <point x="589" y="1038" type="curve"/>
      <point x="890" y="1042"/>
      <point x="1099" y="830"/>
    </contour>
    <contour>
      <point x="435" y="512" type="curve" smooth="yes"/>
      <point x="435" y="337"/>
      <point x="477" y="243"/>
      <point x="588" y="243" type="curve" smooth="yes"/>
      <point x="697" y="243"/>
      <point x="737" y="337"/>
      <point x="737" y="512" type="curve" smooth="yes"/>
      <point x="737" y="687"/>
      <point x="697" y="776"/>
      <point x="586" y="776" type="curve" smooth="yes"/>
      <point x="478" y="776"/>
      <point x="435" y="687"/>
    </contour>
  </outline>
</glyph>
<glyph name="p" format="1">
  <advance width="1185"/>
  <unicode hex="0070"/>
  <outline>
    <contour>
      <point x="733" y="-18" type="curve" smooth="yes"/>
      <point x="630" y="-18"/>
      <point x="554" y="11"/>
      <point x="473" y="100" type="curve"/>
      <point x="457" y="100" type="line"/>
      <point x="468" y="29"/>
      <point x="473" y="-16"/>
      <point x="473" y="-33" type="curve" smooth="yes"/>
      <point x="473" y="-443" type="line"/>
      <point x="121" y="-443" type="line"/>
      <point x="121" y="1020" type="line"/>
      <point x="408" y="1020" type="line"/>
      <point x="457" y="890" type="line"/>
      <point x="473" y="890" type="line"/>
      <point x="538" y="989"/>
      <point x="629" y="1038"/>
      <point x="744" y="1038" type="curve" smooth="yes"/>
      <point x="857" y="1038"/>
      <point x="945" y="991"/>
      <point x="1009" y="897" type="curve"/>
      <point x="1074" y="804"/>
      <point x="1106" y="675"/>
      <point x="1106" y="512" type="curve" smooth="yes"/>
      <point x="1106" y="347"/>
      <point x="1072" y="218"/>
      <point x="1005" y="123" type="curve" smooth="yes"/>
      <point x="938" y="29"/>
      <point x="848" y="-18"/>
    </contour>
    <contour>
      <point x="616" y="761" type="curve" smooth="yes"/>
      <point x="512" y="761"/>
      <point x="477" y="687"/>
      <point x="473" y="542" type="curve"/>
      <point x="473" y="514" type="line" smooth="yes"/>
      <point x="473" y="338"/>
      <point x="519" y="265"/>
      <point x="619" y="265" type="curve" smooth="yes"/>
      <point x="710" y="265"/>
      <point x="748" y="337"/>
      <point x="748" y="516" type="curve" smooth="yes"/>
      <point x="748" y="691"/>
      <point x="711" y="761"/>
    </contour>
  </outline>
</glyph>
<glyph name="q" format="1">
  <advance width="1185"/>
  <unicode hex="0071"/>
  <outline>
    <contour>
      <point x="443" y="-18" type="curve" smooth="yes"/>
      <point x="329" y="-18"/>
      <point x="239" y="29"/>
      <point x="174" y="122" type="curve" smooth="yes"/>
      <point x="109" y="216"/>
      <point x="77" y="345"/>
      <point x="77" y="508" type="curve" smooth="yes"/>
      <point x="77" y="674"/>
      <point x="110" y="804"/>
      <point x="176" y="897" type="curve" smooth="yes"/>
      <point x="243" y="991"/>
      <point x="333" y="1038"/>
      <point x="448" y="1038" type="curve" smooth="yes"/>
      <point x="571" y="1038"/>
      <point x="664" y="990"/>
      <point x="726" y="894" type="curve"/>
      <point x="733" y="894" type="line"/>
      <point x="760" y="1020" type="line"/>
      <point x="1064" y="1020" type="line"/>
      <point x="1064" y="-443" type="line"/>
      <point x="712" y="-443" type="line"/>
      <point x="712" y="-21" type="line" smooth="yes"/>
      <point x="712" y="0"/>
      <point x="716" y="50"/>
      <point x="723" y="129" type="curve"/>
      <point x="712" y="129" type="line"/>
      <point x="654" y="31"/>
      <point x="564" y="-18"/>
    </contour>
    <contour>
      <point x="586" y="255" type="curve" smooth="yes"/>
      <point x="693" y="255"/>
      <point x="739" y="315"/>
      <point x="739" y="472" type="curve" smooth="yes"/>
      <point x="739" y="514" type="line" smooth="yes"/>
      <point x="739" y="694"/>
      <point x="693" y="765"/>
      <point x="580" y="765" type="curve" smooth="yes"/>
      <point x="483" y="765"/>
      <point x="435" y="678"/>
      <point x="435" y="503" type="curve" smooth="yes"/>
      <point x="435" y="326"/>
      <point x="482" y="255"/>
    </contour>
  </outline>
</glyph>
<glyph name="s" format="1">
  <advance width="983"/>
  <unicode hex="0073"/>
  <outline>
    <contour>
      <point x="909" y="313" type="curve" smooth="yes"/>
      <point x="909" y="94"/>
      <point x="756" y="-18"/>
      <point x="477" y="-18" type="curve" smooth="yes"/>
      <point x="402" y="-18"/>
      <point x="336" y="-14"/>
      <point x="280" y="-6" type="curve" smooth="yes"/>
      <point x="224" y="2"/>
      <point x="167" y="17"/>
      <point x="109" y="39" type="curve"/>
      <point x="109" y="320" type="line"/>
      <point x="164" y="296"/>
      <point x="223" y="276"/>
      <point x="288" y="261" type="curve" smooth="yes"/>
      <point x="353" y="246"/>
      <point x="412" y="238"/>
      <point x="463" y="238" type="curve" smooth="yes"/>
      <point x="539" y="238"/>
      <point x="577" y="255"/>
      <point x="577" y="290" type="curve" smooth="yes"/>
      <point x="577" y="308"/>
      <point x="566" y="324"/>
      <point x="545" y="338" type="curve" smooth="yes"/>
      <point x="524" y="352"/>
      <point x="462" y="379"/>
      <point x="359" y="420" type="curve"/>
      <point x="266" y="459"/>
      <point x="200" y="502"/>
      <point x="163" y="551" type="curve" smooth="yes"/>
      <point x="126" y="600"/>
      <point x="107" y="662"/>
      <point x="107" y="737" type="curve" smooth="yes"/>
      <point x="107" y="832"/>
      <point x="144" y="905"/>
      <point x="217" y="958" type="curve" smooth="yes"/>
      <point x="290" y="1011"/>
      <point x="394" y="1038"/>
      <point x="527" y="1038" type="curve" smooth="yes"/>
      <point x="662" y="1038"/>
      <point x="773" y="1008"/>
      <point x="901" y="951" type="curve"/>
      <point x="805" y="724" type="line"/>
      <point x="758" y="745"/>
      <point x="709" y="763"/>
      <point x="657" y="778" type="curve" smooth="yes"/>
      <point x="605" y="793"/>
      <point x="562" y="800"/>
      <point x="529" y="800" type="curve" smooth="yes"/>
      <point x="472" y="800"/>
      <point x="443" y="786"/>
      <point x="443" y="758" type="curve" smooth="yes"/>
      <point x="443" y="741"/>
      <point x="453" y="726"/>
      <point x="473" y="713" type="curve" smooth="yes"/>
      <point x="493" y="701"/>
      <point x="551" y="676"/>
      <point x="647" y="638" type="curve" smooth="yes"/>
      <point x="718" y="609"/>
      <point x="771" y="580"/>
      <point x="806" y="551" type="curve"/>
      <point x="877" y="495"/>
      <point x="909" y="422"/>
    </contour>
  </outline>
</glyph>
<glyph name="t" format="1">
  <advance width="848"/>
  <unicode hex="0074"/>
  <outline>
    <contour>
      <point x="621" y="260" type="curve" smooth="yes"/>
      <point x="668" y="260"/>
      <point x="725" y="272"/>
      <point x="791" y="295" type="curve"/>
      <point x="791" y="39" type="line"/>
      <point x="744" y="18"/>
      <point x="698" y="4"/>
      <point x="655" y="-5" type="curve" smooth="yes"/>
      <point x="612" y="-14"/>
      <point x="562" y="-18"/>
      <point x="505" y="-18" type="curve" smooth="yes"/>
      <point x="269" y="-18"/>
      <point x="171" y="96"/>
      <point x="171" y="336" type="curve" smooth="yes"/>
      <point x="171" y="756" type="line"/>
      <point x="48" y="756" type="line"/>
      <point x="48" y="899" type="line"/>
      <point x="204" y="1010" type="line"/>
      <point x="295" y="1224" type="line"/>
      <point x="526" y="1224" type="line"/>
      <point x="526" y="1020" type="line"/>
      <point x="776" y="1020" type="line"/>
      <point x="776" y="756" type="line"/>
      <point x="526" y="756" type="line"/>
      <point x="526" y="359" type="line" smooth="yes"/>
      <point x="526" y="293"/>
      <point x="558" y="260"/>
    </contour>
  </outline>
</glyph>
<glyph name="u" format="1">
  <advance width="1235"/>
  <unicode hex="0075"/>
  <outline>
    <contour>
      <point x="848" y="0" type="line"/>
      <point x="804" y="127" type="line"/>
      <point x="783" y="127" type="line"/>
      <point x="724" y="34"/>
      <point x="616" y="-18"/>
      <point x="475" y="-18" type="curve" smooth="yes"/>
      <point x="251" y="-18"/>
      <point x="120" y="118"/>
      <point x="120" y="355" type="curve" smooth="yes"/>
      <point x="120" y="1020" type="line"/>
      <point x="472" y="1020" type="line"/>
      <point x="472" y="463" type="line" smooth="yes"/>
      <point x="472" y="330"/>
      <point x="506" y="260"/>
      <point x="593" y="260" type="curve" smooth="yes"/>
      <point x="654" y="260"/>
      <point x="697" y="284"/>
      <point x="722" y="331" type="curve" smooth="yes"/>
      <point x="748" y="379"/>
      <point x="761" y="460"/>
      <point x="761" y="573" type="curve" smooth="yes"/>
      <point x="761" y="1020" type="line"/>
      <point x="1113" y="1020" type="line"/>
      <point x="1113" y="0" type="line"/>
    </contour>
  </outline>
</glyph>
<glyph name="w" format="1">
  <advance width="1678"/>
  <unicode hex="0077"/>
  <outline>
    <contour>
      <point x="999" y="0" type="line"/>
      <point x="884" y="486" type="line"/>
      <point x="857" y="633" type="line"/>
      <point x="839" y="751" type="line"/>
      <point x="833" y="751" type="line"/>
      <point x="804" y="583"/>
      <point x="784" y="477"/>
      <point x="774" y="433" type="curve" smooth="yes"/>
      <point x="670" y="0" type="line"/>
      <point x="301" y="0" type="line"/>
      <point x="22" y="1020" type="line"/>
      <point x="369" y="1020" type="line"/>
      <point x="452" y="628" type="line"/>
      <point x="478" y="494"/>
      <point x="493" y="382"/>
      <point x="498" y="293" type="curve"/>
      <point x="503" y="293" type="line"/>
      <point x="505" y="348"/>
      <point x="522" y="453"/>
      <point x="553" y="608" type="curve"/>
      <point x="647" y="1020" type="line"/>
      <point x="1036" y="1020" type="line"/>
      <point x="1122" y="603" type="line" smooth="yes"/>
      <point x="1150" y="470"/>
      <point x="1167" y="367"/>
      <point x="1174" y="293" type="curve"/>
      <point x="1180" y="293" type="line"/>
      <point x="1183" y="339"/>
      <point x="1189" y="396"/>
      <point x="1197" y="464" type="curve" smooth="yes"/>
      <point x="1206" y="532"/>
      <point x="1215" y="587"/>
      <point x="1226" y="628" type="curve"/>
      <point x="1316" y="1020" type="line"/>
      <point x="1655" y="1020" type="line"/>
      <point x="1375" y="0" type="line"/>
    </contour>
  </outline>
</glyph>
<glyph name="braceleft.deva" format="1">
  <advance width="798"/>
  <unicode hex="007B"/>
  <outline>
    <contour>
      <point x="55" y="647" type="line"/>
      <point x="192" y="647"/>
      <point x="276" y="703"/>
      <point x="276" y="800" type="curve" smooth="yes"/>
      <point x="276" y="1029" type="line" smooth="yes"/>
      <point x="276" y="1112"/>
      <point x="291" y="1175"/>
      <point x="320" y="1216" type="curve" smooth="yes"/>
      <point x="379" y="1299"/>
      <point x="504" y="1335"/>
      <point x="739" y="1335" type="curve"/>
      <point x="739" y="1084" type="line"/>
      <point x="686" y="1082"/>
      <point x="649" y="1078"/>
      <point x="630" y="1071" type="curve" smooth="yes"/>
      <point x="593" y="1059"/>
      <point x="568" y="1033"/>
      <point x="568" y="988" type="curve" smooth="yes"/>
      <point x="568" y="744" type="line" smooth="yes"/>
      <point x="568" y="609"/>
      <point x="504" y="540"/>
      <point x="352" y="517" type="curve"/>
      <point x="352" y="507" type="line"/>
      <point x="505" y="483"/>
      <point x="568" y="414"/>
      <point x="568" y="285" type="curve" smooth="yes"/>
      <point x="568" y="37" type="line" smooth="yes"/>
      <point x="568" y="14"/>
      <point x="574" y="-5"/>
      <point x="587" y="-18" type="curve" smooth="yes"/>
      <point x="612" y="-45"/>
      <point x="646" y="-56"/>
      <point x="739" y="-59" type="curve"/>
      <point x="739" y="-310" type="line"/>
      <point x="621" y="-310"/>
      <point x="529" y="-300"/>
      <point x="463" y="-281" type="curve" smooth="yes"/>
      <point x="397" y="-262"/>
      <point x="349" y="-231"/>
      <point x="320" y="-189" type="curve" smooth="yes"/>
      <point x="291" y="-148"/>
      <point x="276" y="-85"/>
      <point x="276" y="0" type="curve" smooth="yes"/>
      <point x="276" y="223" type="line" smooth="yes"/>
      <point x="276" y="319"/>
      <point x="190" y="376"/>
      <point x="55" y="376" type="curve"/>
    </contour>
  </outline>
</glyph>
<glyph name="bar.deva" format="1">
  <advance width="938"/>
  <unicode hex="007C"/>
  <outline>
    <contour>
      <point x="348" y="1400" type="line"/>
      <point x="589" y="1400" type="line"/>
      <point x="589" y="-401" type="line"/>
      <point x="348" y="-401" type="line"/>
    </contour>
  </outline>
</glyph>
<glyph name="uni20B9.deva" format="1">
  <advance width="1221"/>
  <unicode hex="20B9"/>
  <outline>
    <contour>
      <point x="811" y="671" type="line"/>
      <point x="779" y="541"/>
      <point x="677" y="455"/>
      <point x="501" y="410" type="curve"/>
      <point x="501" y="399" type="line"/>
      <point x="884" y="0" type="line"/>
      <point x="492" y="0" type="line"/>
      <point x="128" y="400" type="line"/>
      <point x="164" y="575" type="line"/>
      <point x="254" y="575" type="line"/>
      <point x="338" y="575"/>
      <point x="393" y="584"/>
      <point x="423" y="604" type="curve" smooth="yes"/>
      <point x="436" y="613"/>
      <point x="453" y="635"/>
      <point x="464" y="660" type="curve"/>
      <point x="464" y="671" type="line"/>
      <point x="126" y="671" type="line"/>
      <point x="126" y="868" type="line"/>
      <point x="462" y="868" type="line"/>
      <point x="462" y="877" type="line"/>
      <point x="451" y="896"/>
      <point x="443" y="908"/>
      <point x="438" y="912" type="curve"/>
      <point x="439" y="912" type="line"/>
      <point x="419" y="929"/>
      <point x="404" y="939"/>
      <point x="390" y="941" type="curve" smooth="yes"/>
      <point x="364" y="947"/>
      <point x="329" y="950"/>
      <point x="280" y="950" type="curve"/>
      <point x="126" y="950" type="line"/>
      <point x="126" y="1147" type="line"/>
      <point x="1099" y="1147" type="line"/>
      <point x="1099" y="950" type="line"/>
      <point x="742" y="950" type="line"/>
      <point x="742" y="938" type="line"/>
      <point x="765" y="915"/>
      <point x="782" y="892"/>
      <point x="792" y="869" type="curve"/>
      <point x="893" y="869"/>
      <point x="999" y="868"/>
      <point x="1099" y="868" type="curve"/>
      <point x="1099" y="671" type="line"/>
    </contour>
  </outline>
</glyph>
